<?xml version="1.0" encoding="UTF-8" standalone="no"?><svg xmlns="http://www.w3.org/2000/svg" xmlns:xlink="http://www.w3.org/1999/xlink" contentStyleType="text/css" height="601px" preserveAspectRatio="none" style="width:923px;height:601px;background:#003153;" version="1.1" viewBox="0 0 923 601" width="923px" zoomAndPan="magnify"><defs/><g><rect fill="#003153" height="36.7373" style="stroke:#003153;stroke-width:0.0;" width="318" x="298" y="10"/><text fill="#D9D3D0" font-family="Verdana" font-size="22" font-weight="bold" lengthAdjust="spacing" textLength="308" x="303" y="37.1182">Swagger Petstore v1.0.0</text><!--MD5=[0a6c2cead64411c82fe9b0cf2004c6b0]
class GET /pets--><g id="elem_GET /pets"><rect codeLine="12" fill="#003153" height="66.6133" id="GET /pets" rx="2.5" ry="2.5" style="stroke:#D9D3D0;stroke-width:1.0;" width="144" x="60" y="59.7373"/><text fill="#D9D3D0" font-family="Verdana" font-size="12" font-style="italic" lengthAdjust="spacing" textLength="43" x="110.5" y="76.8018">«Path»</text><text fill="#D9D3D0" font-family="Verdana" font-size="14" lengthAdjust="spacing" textLength="70" x="97" y="93.3965">GET /pets</text><line style="stroke:#D9D3D0;stroke-width:1.0;" x1="61" x2="203" y1="101.3359" y2="101.3359"/><text fill="#D9D3D0" font-family="Verdana" font-size="14" lengthAdjust="spacing" textLength="132" x="66" y="119.4111">limit : integer {O}</text></g><!--MD5=[e95f7770420b2d049f87f014e05109fe]
class GET /pets 200--><g id="elem_GET /pets 200"><rect codeLine="15" fill="#003153" height="41.5986" id="GET /pets 200" rx="2.5" ry="2.5" style="stroke:#D9D3D0;stroke-width:1.0;" width="108" x="12" y="203.7373"/><text fill="#D9D3D0" font-family="Verdana" font-size="12" font-style="italic" lengthAdjust="spacing" textLength="72" x="30" y="220.8018">«Response»</text><text fill="#D9D3D0" font-family="Verdana" font-size="14" lengthAdjust="spacing" textLength="102" x="15" y="237.3965">GET /pets 200</text></g><!--MD5=[49ebb3ae3de95b6db15502352921f116]
class GET /pets default--><g id="elem_GET /pets default"><rect codeLine="16" fill="#003153" height="41.5986" id="GET /pets default" rx="2.5" ry="2.5" style="stroke:#D9D3D0;stroke-width:1.0;" width="130" x="155" y="203.7373"/><text fill="#D9D3D0" font-family="Verdana" font-size="12" font-style="italic" lengthAdjust="spacing" textLength="72" x="184" y="220.8018">«Response»</text><text fill="#D9D3D0" font-family="Verdana" font-size="14" lengthAdjust="spacing" textLength="124" x="158" y="237.3965">GET /pets default</text></g><!--MD5=[087bd60aed28e463dbeda33bbd5b991c]
class POST /pets--><g id="elem_POST /pets"><rect codeLine="17" fill="#003153" height="41.5986" id="POST /pets" rx="2.5" ry="2.5" style="stroke:#D9D3D0;stroke-width:1.0;" width="85" x="447.5" y="72.2373"/><text fill="#D9D3D0" font-family="Verdana" font-size="12" font-style="italic" lengthAdjust="spacing" textLength="43" x="468.5" y="89.3018">«Path»</text><text fill="#D9D3D0" font-family="Verdana" font-size="14" lengthAdjust="spacing" textLength="79" x="450.5" y="105.8965">POST /pets</text></g><!--MD5=[15636dcb8f290b92990870cb0a2a3004]
class POST /pets 201--><g id="elem_POST /pets 201"><rect codeLine="19" fill="#003153" height="41.5986" id="POST /pets 201" rx="2.5" ry="2.5" style="stroke:#D9D3D0;stroke-width:1.0;" width="117" x="494.5" y="203.7373"/><text fill="#D9D3D0" font-family="Verdana" font-size="12" font-style="italic" lengthAdjust="spacing" textLength="72" x="517" y="220.8018">«Response»</text><text fill="#D9D3D0" font-family="Verdana" font-size="14" lengthAdjust="spacing" textLength="111" x="497.5" y="237.3965">POST /pets 201</text></g><!--MD5=[7788d3c21e70113f36d229637001a6b2]
class POST /pets default--><g id="elem_POST /pets default"><rect codeLine="20" fill="#003153" height="41.5986" id="POST /pets default" rx="2.5" ry="2.5" style="stroke:#D9D3D0;stroke-width:1.0;" width="139" x="320.5" y="203.7373"/><text fill="#D9D3D0" font-family="Verdana" font-size="12" font-style="italic" lengthAdjust="spacing" textLength="72" x="354" y="220.8018">«Response»</text><text fill="#D9D3D0" font-family="Verdana" font-size="14" lengthAdjust="spacing" textLength="133" x="323.5" y="237.3965">POST /pets default</text></g><!--MD5=[5e95c49161e344a97842298361576963]
class GET /pets/{petId}--><g id="elem_GET /pets/{petId}"><rect codeLine="21" fill="#003153" height="66.6133" id="GET /pets/{petId}" rx="2.5" ry="2.5" style="stroke:#D9D3D0;stroke-width:1.0;" width="138" x="778" y="59.7373"/><text fill="#D9D3D0" font-family="Verdana" font-size="12" font-style="italic" lengthAdjust="spacing" textLength="43" x="825.5" y="76.8018">«Path»</text><text fill="#D9D3D0" font-family="Verdana" font-size="14" lengthAdjust="spacing" textLength="132" x="781" y="93.3965">GET /pets/{petId}</text><line style="stroke:#D9D3D0;stroke-width:1.0;" x1="779" x2="915" y1="101.3359" y2="101.3359"/><text fill="#D9D3D0" font-family="Verdana" font-size="14" lengthAdjust="spacing" textLength="95" x="784" y="119.4111">petId : string</text></g><!--MD5=[fda567a0a6bdb9fff3dadedb9b716a57]
class GET /pets/{petId} 200--><g id="elem_GET /pets/{petId} 200"><rect codeLine="24" fill="#003153" height="41.5986" id="GET /pets/{petId} 200" rx="2.5" ry="2.5" style="stroke:#D9D3D0;stroke-width:1.0;" width="170" x="735" y="275.7373"/><text fill="#D9D3D0" font-family="Verdana" font-size="12" font-style="italic" lengthAdjust="spacing" textLength="72" x="784" y="292.8018">«Response»</text><text fill="#D9D3D0" font-family="Verdana" font-size="14" lengthAdjust="spacing" textLength="164" x="738" y="309.3965">GET /pets/{petId} 200</text></g><!--MD5=[9b1efe8429b9ada8e427c694ff98c066]
class GET /pets/{petId} default--><g id="elem_GET /pets/{petId} default"><rect codeLine="25" fill="#003153" height="41.5986" id="GET /pets/{petId} default" rx="2.5" ry="2.5" style="stroke:#D9D3D0;stroke-width:1.0;" width="192" x="647" y="203.7373"/><text fill="#D9D3D0" font-family="Verdana" font-size="12" font-style="italic" lengthAdjust="spacing" textLength="72" x="707" y="220.8018">«Response»</text><text fill="#D9D3D0" font-family="Verdana" font-size="14" lengthAdjust="spacing" textLength="186" x="650" y="237.3965">GET /pets/{petId} default</text></g><!--MD5=[9cfa872a99fa8e70a8c023fe905238fd]
class Pet--><g id="elem_Pet"><rect codeLine="26" fill="#003153" height="87.0439" id="Pet" rx="2.5" ry="2.5" style="stroke:#D9D3D0;stroke-width:1.0;" width="108" x="369" y="478.7373"/><ellipse cx="408.25" cy="492.7373" fill="#003153" rx="9" ry="9" style="stroke:#D9D3D0;stroke-width:1.0;"/><path d="M409.9531,488.1665 Q410.1191,487.8677 410.2935,487.7432 Q410.4678,487.6187 410.7334,487.6187 Q411.1401,487.6187 411.3103,487.8345 Q411.4805,488.0503 411.4805,488.5732 L411.4971,490.7314 Q411.4971,491.3042 411.3103,491.5034 Q411.1235,491.7026 410.6338,491.7026 Q410.2852,491.7026 410.0984,491.5366 Q409.9116,491.3706 409.7788,490.9224 Q409.563,490.1338 409.0898,489.7893 Q408.6167,489.4448 407.7783,489.4448 Q406.5,489.4448 405.8193,490.3081 Q405.1387,491.1714 405.1387,492.8066 Q405.1387,494.4336 405.8276,495.3052 Q406.5166,496.1768 407.7949,496.1768 Q408.6665,496.1768 409.7166,495.5957 Q410.7666,495.0146 411.0405,495.0146 Q411.3643,495.0146 411.5842,495.2886 Q411.8042,495.5625 411.8042,495.9692 Q411.8042,496.6997 410.5176,497.3472 Q409.231,497.9946 407.6206,497.9946 Q405.4458,497.9946 404.1011,496.5586 Q402.7563,495.1226 402.7563,492.8066 Q402.7563,490.5737 404.1177,489.0962 Q405.479,487.6187 407.5708,487.6187 Q408.1602,487.6187 408.7329,487.7515 Q409.3057,487.8843 409.9531,488.1665 Z " fill="#D9D3D0"/><text fill="#D9D3D0" font-family="Verdana" font-size="14" lengthAdjust="spacing" textLength="22" x="425.75" y="498.3052">Pet</text><line style="stroke:#D9D3D0;stroke-width:1.0;" x1="370" x2="476" y1="506.7373" y2="506.7373"/><text fill="#D9D3D0" font-family="Verdana" font-size="14" lengthAdjust="spacing" textLength="79" x="375" y="524.8125">id : integer</text><text fill="#D9D3D0" font-family="Verdana" font-size="14" lengthAdjust="spacing" textLength="96" x="375" y="541.8271">name : string</text><text fill="#D9D3D0" font-family="Verdana" font-size="14" lengthAdjust="spacing" textLength="80" x="375" y="558.8418">tag : string</text></g><!--MD5=[5f57145429fa262ab416588fa7a1582f]
class Pets--><g id="elem_Pets"><rect codeLine="31" fill="#003153" height="53.0146" id="Pets" rx="2.5" ry="2.5" style="stroke:#D9D3D0;stroke-width:1.0;" width="101" x="124.5" y="356.2373"/><ellipse cx="157.3" cy="370.2373" fill="#003153" rx="9" ry="9" style="stroke:#D9D3D0;stroke-width:1.0;"/><path d="M159.0031,365.6665 Q159.1691,365.3677 159.3435,365.2432 Q159.5178,365.1187 159.7834,365.1187 Q160.1901,365.1187 160.3603,365.3345 Q160.5305,365.5503 160.5305,366.0732 L160.5471,368.2314 Q160.5471,368.8042 160.3603,369.0034 Q160.1735,369.2026 159.6838,369.2026 Q159.3352,369.2026 159.1484,369.0366 Q158.9616,368.8706 158.8288,368.4224 Q158.613,367.6338 158.1398,367.2893 Q157.6667,366.9448 156.8283,366.9448 Q155.55,366.9448 154.8693,367.8081 Q154.1887,368.6714 154.1887,370.3066 Q154.1887,371.9336 154.8776,372.8052 Q155.5666,373.6768 156.8449,373.6768 Q157.7165,373.6768 158.7666,373.0957 Q159.8166,372.5146 160.0905,372.5146 Q160.4143,372.5146 160.6342,372.7886 Q160.8542,373.0625 160.8542,373.4692 Q160.8542,374.1997 159.5676,374.8472 Q158.281,375.4946 156.6706,375.4946 Q154.4958,375.4946 153.1511,374.0586 Q151.8063,372.6226 151.8063,370.3066 Q151.8063,368.0737 153.1677,366.5962 Q154.529,365.1187 156.6208,365.1187 Q157.2102,365.1187 157.7829,365.2515 Q158.3557,365.3843 159.0031,365.6665 Z " fill="#D9D3D0"/><text fill="#D9D3D0" font-family="Verdana" font-size="14" lengthAdjust="spacing" textLength="29" x="173.7" y="375.8052">Pets</text><line style="stroke:#D9D3D0;stroke-width:1.0;" x1="125.5" x2="224.5" y1="384.2373" y2="384.2373"/><text fill="#D9D3D0" font-family="Verdana" font-size="14" lengthAdjust="spacing" textLength="89" x="130.5" y="402.3125">value : array</text></g><!--MD5=[b8cfd8c4119a3b0a7a46bfc5fc780f85]
class Error--><g id="elem_Error"><rect codeLine="34" fill="#003153" height="70.0293" id="Error" rx="2.5" ry="2.5" style="stroke:#D9D3D0;stroke-width:1.0;" width="130" x="325" y="347.7373"/><ellipse cx="368.75" cy="361.7373" fill="#003153" rx="9" ry="9" style="stroke:#D9D3D0;stroke-width:1.0;"/><path d="M370.4531,357.1665 Q370.6191,356.8677 370.7935,356.7432 Q370.9678,356.6187 371.2334,356.6187 Q371.6401,356.6187 371.8103,356.8345 Q371.9805,357.0503 371.9805,357.5732 L371.9971,359.7314 Q371.9971,360.3042 371.8103,360.5034 Q371.6235,360.7026 371.1338,360.7026 Q370.7852,360.7026 370.5984,360.5366 Q370.4116,360.3706 370.2788,359.9224 Q370.063,359.1338 369.5898,358.7893 Q369.1167,358.4448 368.2783,358.4448 Q367,358.4448 366.3193,359.3081 Q365.6387,360.1714 365.6387,361.8066 Q365.6387,363.4336 366.3276,364.3052 Q367.0166,365.1768 368.2949,365.1768 Q369.1665,365.1768 370.2166,364.5957 Q371.2666,364.0146 371.5405,364.0146 Q371.8643,364.0146 372.0842,364.2886 Q372.3042,364.5625 372.3042,364.9692 Q372.3042,365.6997 371.0176,366.3472 Q369.731,366.9946 368.1206,366.9946 Q365.9458,366.9946 364.6011,365.5586 Q363.2563,364.1226 363.2563,361.8066 Q363.2563,359.5737 364.6177,358.0962 Q365.979,356.6187 368.0708,356.6187 Q368.6602,356.6187 369.2329,356.7515 Q369.8057,356.8843 370.4531,357.1665 Z " fill="#D9D3D0"/><text fill="#D9D3D0" font-family="Verdana" font-size="14" lengthAdjust="spacing" textLength="35" x="386.25" y="367.3052">Error</text><line style="stroke:#D9D3D0;stroke-width:1.0;" x1="326" x2="454" y1="375.7373" y2="375.7373"/><text fill="#D9D3D0" font-family="Verdana" font-size="14" lengthAdjust="spacing" textLength="98" x="331" y="393.8125">code : integer</text><text fill="#D9D3D0" font-family="Verdana" font-size="14" lengthAdjust="spacing" textLength="118" x="331" y="410.8271">message : string</text></g><!--MD5=[1147b680dd808fa41715f8830e4e0eed]
link GET /pets to GET /pets 200--><g id="link_GET /pets_GET /pets 200"><path codeLine="38" d="M115.35,126.9173 C103.91,149.3473 88.98,178.6473 78.55,199.1173 " fill="none" id="GET /pets-to-GET /pets 200" style="stroke:#D9D3D0;stroke-width:1.0;stroke-dasharray:7.0,7.0;"/><polygon fill="#D9D3D0" points="76.26,203.5973,83.9104,197.3948,78.5303,199.1424,76.7826,193.7623,76.26,203.5973" style="stroke:#D9D3D0;stroke-width:1.0;"/><text fill="#D9D3D0" font-family="Verdana" font-size="13" lengthAdjust="spacing" textLength="24" x="100" y="170.8071">200</text><text fill="#D9D3D0" font-family="Verdana" font-size="13" lengthAdjust="spacing" textLength="8" x="70.1771" y="193.08">1</text></g><!--MD5=[a487395fc613c3ea7b5d31b3d554efea]
link GET /pets 200 to Pets--><g id="link_GET /pets 200_Pets"><path codeLine="39" d="M80.03,245.8073 C98.77,272.6373 132.14,320.3973 153.92,351.5673 " fill="none" id="GET /pets 200-to-Pets" style="stroke:#D9D3D0;stroke-width:1.0;stroke-dasharray:7.0,7.0;"/><polygon fill="#D9D3D0" points="157.05,356.0373,155.1635,346.3708,154.1817,351.9418,148.6107,350.96,157.05,356.0373" style="stroke:#D9D3D0;stroke-width:1.0;"/><text fill="#D9D3D0" font-family="Verdana" font-size="13" lengthAdjust="spacing" textLength="24" x="132" y="302.3071">200</text><text fill="#D9D3D0" font-family="Verdana" font-size="13" lengthAdjust="spacing" textLength="8" x="143.4253" y="345.4439">1</text></g><!--MD5=[5349a2deef7947f12a2fef6aa175c93e]
link GET /pets to GET /pets default--><g id="link_GET /pets_GET /pets default"><path codeLine="40" d="M154.21,126.9173 C169.51,149.4373 189.53,178.8973 203.44,199.3773 " fill="none" id="GET /pets-to-GET /pets default" style="stroke:#D9D3D0;stroke-width:1.0;stroke-dasharray:7.0,7.0;"/><polygon fill="#D9D3D0" points="206.32,203.5973,204.5559,193.9077,203.5038,199.4659,197.9456,198.4137,206.32,203.5973" style="stroke:#D9D3D0;stroke-width:1.0;"/><text fill="#D9D3D0" font-family="Verdana" font-size="13" lengthAdjust="spacing" textLength="46" x="185" y="170.8071">default</text><text fill="#D9D3D0" font-family="Verdana" font-size="13" lengthAdjust="spacing" textLength="8" x="192.9055" y="193.08">1</text></g><!--MD5=[59004c35fcda79b73e2b3245e2540f86]
link GET /pets default to Error--><g id="link_GET /pets default_Error"><path codeLine="41" d="M241.88,245.8073 C268.76,270.4873 314.95,312.8673 348.62,343.7673 " fill="none" id="GET /pets default-to-Error" style="stroke:#D9D3D0;stroke-width:1.0;stroke-dasharray:7.0,7.0;"/><polygon fill="#D9D3D0" points="352.66,347.4673,348.738,338.433,348.9778,344.0848,343.326,344.3246,352.66,347.4673" style="stroke:#D9D3D0;stroke-width:1.0;"/><text fill="#D9D3D0" font-family="Verdana" font-size="13" lengthAdjust="spacing" textLength="46" x="322" y="302.3071">default</text><text fill="#D9D3D0" font-family="Verdana" font-size="13" lengthAdjust="spacing" textLength="8" x="336.1336" y="336.7952">1</text></g><!--MD5=[5b6883294d9a42d2d74c804680c03cfe]
link POST /pets to POST /pets 201--><g id="link_POST /pets_POST /pets 201"><path codeLine="42" d="M499.84,114.4673 C510.94,137.2773 528.98,174.3673 540.92,198.9073 " fill="none" id="POST /pets-to-POST /pets 201" style="stroke:#D9D3D0;stroke-width:1.0;stroke-dasharray:7.0,7.0;"/><polygon fill="#D9D3D0" points="543.23,203.6473,542.8959,193.8041,541.0455,199.1498,535.6998,197.2993,543.23,203.6473" style="stroke:#D9D3D0;stroke-width:1.0;"/><text fill="#D9D3D0" font-family="Verdana" font-size="13" lengthAdjust="spacing" textLength="24" x="528" y="170.8071">201</text><text fill="#D9D3D0" font-family="Verdana" font-size="13" lengthAdjust="spacing" textLength="8" x="531.0129" y="193.1453">1</text></g><!--MD5=[f7c103747eb77d80dcf475c7305d8181]
link POST /pets to POST /pets default--><g id="link_POST /pets_POST /pets default"><path codeLine="43" d="M474.38,114.4673 C456.62,137.4673 427.64,174.9873 408.7,199.5273 " fill="none" id="POST /pets-to-POST /pets default" style="stroke:#D9D3D0;stroke-width:1.0;stroke-dasharray:7.0,7.0;"/><polygon fill="#D9D3D0" points="405.52,203.6473,414.1877,198.9706,408.5768,199.6906,407.8569,194.0797,405.52,203.6473" style="stroke:#D9D3D0;stroke-width:1.0;"/><text fill="#D9D3D0" font-family="Verdana" font-size="13" lengthAdjust="spacing" textLength="46" x="441" y="170.8071">default</text><text fill="#D9D3D0" font-family="Verdana" font-size="13" lengthAdjust="spacing" textLength="8" x="401.048" y="193.1453">1</text></g><!--MD5=[a24e5556ac12b8474120f343df67b3f8]
link POST /pets default to Error--><g id="link_POST /pets default_Error"><path codeLine="44" d="M390,245.8073 C390,270.0873 390,311.4973 390,342.2473 " fill="none" id="POST /pets default-to-Error" style="stroke:#D9D3D0;stroke-width:1.0;stroke-dasharray:7.0,7.0;"/><polygon fill="#D9D3D0" points="390,347.4673,394.0257,338.4788,390.0143,342.4673,386.0257,338.4559,390,347.4673" style="stroke:#D9D3D0;stroke-width:1.0;"/><text fill="#D9D3D0" font-family="Verdana" font-size="13" lengthAdjust="spacing" textLength="46" x="391" y="302.3071">default</text><text fill="#D9D3D0" font-family="Verdana" font-size="13" lengthAdjust="spacing" textLength="8" x="381.175" y="336.7952">1</text></g><!--MD5=[45a00f969de693282e0c7f3f361df8db]
link GET /pets/{petId} to GET /pets/{petId} 200--><g id="link_GET /pets/{petId}_GET /pets/{petId} 200"><path codeLine="45" d="M856.08,126.7573 C863.22,158.0473 870,206.3073 857,245.7373 C853.98,254.9073 848.55,263.7773 842.77,271.4273 " fill="none" id="GET /pets/{petId}-to-GET /pets/{petId} 200" style="stroke:#D9D3D0;stroke-width:1.0;stroke-dasharray:7.0,7.0;"/><polygon fill="#D9D3D0" points="839.53,275.5473,848.2349,270.9403,842.6185,271.6152,841.9436,265.9988,839.53,275.5473" style="stroke:#D9D3D0;stroke-width:1.0;"/><text fill="#D9D3D0" font-family="Verdana" font-size="13" lengthAdjust="spacing" textLength="24" x="864" y="170.8071">200</text><text fill="#D9D3D0" font-family="Verdana" font-size="13" lengthAdjust="spacing" textLength="8" x="840.0863" y="266.3939">1</text></g><!--MD5=[c797db324bab3ebb4cdbe0e43b2611e0]
link GET /pets/{petId} 200 to Pet--><g id="link_GET /pets/{petId} 200_Pet"><path codeLine="46" d="M784.42,317.7673 C715.89,356.3473 565.01,441.2873 481.49,488.3073 " fill="none" id="GET /pets/{petId} 200-to-Pet" style="stroke:#D9D3D0;stroke-width:1.0;stroke-dasharray:7.0,7.0;"/><polygon fill="#D9D3D0" points="477.07,490.7973,486.8742,489.8606,481.4252,488.3413,482.9445,482.8922,477.07,490.7973" style="stroke:#D9D3D0;stroke-width:1.0;"/><text fill="#D9D3D0" font-family="Verdana" font-size="13" lengthAdjust="spacing" textLength="24" x="731" y="388.3071">200</text><text fill="#D9D3D0" font-family="Verdana" font-size="13" lengthAdjust="spacing" textLength="8" x="484.8732" y="483.6853">1</text></g><!--MD5=[94f5b401899b14b8951476bb8e0c8ab0]
link GET /pets/{petId} to GET /pets/{petId} default--><g id="link_GET /pets/{petId}_GET /pets/{petId} default"><path codeLine="47" d="M820.76,126.9173 C802.59,149.5373 778.82,179.1373 762.36,199.6273 " fill="none" id="GET /pets/{petId}-to-GET /pets/{petId} default" style="stroke:#D9D3D0;stroke-width:1.0;stroke-dasharray:7.0,7.0;"/><polygon fill="#D9D3D0" points="759.17,203.5973,767.9218,199.08,762.2987,199.6971,761.6815,194.0741,759.17,203.5973" style="stroke:#D9D3D0;stroke-width:1.0;"/><text fill="#D9D3D0" font-family="Verdana" font-size="13" lengthAdjust="spacing" textLength="46" x="796" y="170.8071">default</text><text fill="#D9D3D0" font-family="Verdana" font-size="13" lengthAdjust="spacing" textLength="8" x="754.8971" y="193.08">1</text></g><!--MD5=[8c0472b428794e447c0a1b4e61eb3f3a]
link GET /pets/{petId} default to Error--><g id="link_GET /pets/{petId} default_Error"><path codeLine="48" d="M697.57,245.8073 C637.26,272.4673 530.17,319.7873 459.62,350.9673 " fill="none" id="GET /pets/{petId} default-to-Error" style="stroke:#D9D3D0;stroke-width:1.0;stroke-dasharray:7.0,7.0;"/><polygon fill="#D9D3D0" points="455.03,352.9973,464.8788,353.0288,459.6055,350.9812,461.6531,345.7079,455.03,352.9973" style="stroke:#D9D3D0;stroke-width:1.0;"/><text fill="#D9D3D0" font-family="Verdana" font-size="13" lengthAdjust="spacing" textLength="46" x="629" y="302.3071">default</text><text fill="#D9D3D0" font-family="Verdana" font-size="13" lengthAdjust="spacing" textLength="8" x="463.0116" y="346.8058">1</text></g><!--MD5=[70bf3cdf2f4308d2f9864626ac4c3e8c]
link Pets to Pet--><g id="link_Pets_Pet"><path codeLine="49" d="M221.07,409.2773 C261.56,431.7273 320.7,464.5173 364.52,488.8173 " fill="none" id="Pets-to-Pet" style="stroke:#D9D3D0;stroke-width:1.0;stroke-dasharray:7.0,7.0;"/><polygon fill="#D9D3D0" points="368.98,491.2873,363.0355,483.4347,364.6032,488.87,359.1679,490.4377,368.98,491.2873" style="stroke:#D9D3D0;stroke-width:1.0;"/><text fill="#D9D3D0" font-family="Verdana" font-size="13" lengthAdjust="spacing" textLength="8" x="352.8209" y="484.0032">*</text></g><rect fill="#003153" height="12.1533" style="stroke:#003153;stroke-width:0.0;" width="275" x="319.5" y="576.7813"/><text fill="#D9D3D0" font-family="Verdana" font-size="10" lengthAdjust="spacing" textLength="275" x="319.5" y="586.835">OpenApi Type diagram - futurum.openapi-to-plantuml</text><!--MD5=[d720d5dad7d977250b528e5a1ed7fbb3]
@startuml OpenApi Type diagram
!theme blueprint

hide <<Path>> circle
hide <<Response>> circle
hide <<Parameter>> circle
hide empty methods
hide empty fields
set namespaceSeparator none

title Swagger Petstore v1.0.0
footer OpenApi Type diagram - futurum.openapi-to-plantuml
class "GET /pets" <<Path>> {
{field} limit : integer {O}
}
class "GET /pets 200" <<Response>> { }
class "GET /pets default" <<Response>> { }
class "POST /pets" <<Path>> {
}
class "POST /pets 201" <<Response>> { }
class "POST /pets default" <<Response>> { }
class "GET /pets/{petId}" <<Path>> {
{field} petId : string
}
class "GET /pets/{petId} 200" <<Response>> { }
class "GET /pets/{petId} default" <<Response>> { }
class Pet {
{field} id : integer
{field} name : string
{field} tag : string
}
class Pets {
{field} value : array
}
class Error {
{field} code : integer
{field} message : string
}
"GET /pets" ..> "1" "GET /pets 200" : 200
"GET /pets 200" ..> "1" "Pets" : 200
"GET /pets" ..> "1" "GET /pets default" : default
"GET /pets default" ..> "1" "Error" : default
"POST /pets" ..> "1" "POST /pets 201" : 201
"POST /pets" ..> "1" "POST /pets default" : default
"POST /pets default" ..> "1" "Error" : default
"GET /pets/{petId}" ..> "1" "GET /pets/{petId} 200" : 200
"GET /pets/{petId} 200" ..> "1" "Pet" : 200
"GET /pets/{petId}" ..> "1" "GET /pets/{petId} default" : default
"GET /pets/{petId} default" ..> "1" "Error" : default
"Pets" ..> "*" "Pet"


@enduml

@startuml OpenApi Type diagram





<style>
  root {
    BackgroundColor #003153
    FontColor #D9D3D0
    FontName Verdana
    HyperLinkColor #D9D3D0
    LineColor #D9D3D0
    LineThickness 1
    Margin 5
  }
  caption {
    LineThickness 0
  }
  footer {
    LineThickness 0
  }
  header {
    LineThickness 0
  }
  node {
    MaximumWidth 300
  }
  title {
    FontSize 22
    LineThickness 0
  }
</style>

skinparam ArrowLollipopColor #D9D3D0
skinparam BackgroundColor #003153
skinparam DefaultFontName Verdana
skinparam DefaultMonospacedFontName Courier
skinparam LifelineStrategy nosolid
skinparam ParticipantPadding 10
skinparam SequenceLifeLineBorderColor #D9D3D0
skinparam Shadowing false
skinparam UseBetaStyle true

skinparam Activity {
  BackgroundColor #003153
  BarColor #D9D3D0
  BorderColor #D9D3D0
  FontColor #D9D3D0
  FontName Verdana
}
skinparam Boundary {
  FontColor #D9D3D0
}
skinparam Box {
  Padding 5
}
skinparam CircledCharacter {
  FontColor #D9D3D0
  FontName Courier
  Radius 9
}
skinparam Class {
  BackgroundColor #003153
  BorderColor #D9D3D0
  FontColor #D9D3D0
  FontName Verdana
}
skinparam ClassAttribute {
  FontColor #D9D3D0
  FontName Verdana
}
skinparam ClassStereotype {
  FontColor #D9D3D0
  FontName Verdana
}
skinparam Footer {
  FontColor #D9D3D0
  FontName Verdana
}
skinparam Header {
  FontColor #D9D3D0
  FontName Verdana
}
skinparam Hyperlink {
  Color #D9D3D0
}
skinparam IconPackage {
  Color #D9D3D0
  BackgroundColor #003153
}
skinparam IconPrivate {
  Color #D9D3D0
  BackgroundColor #003153
}
skinparam IconProtected {
  Color #D9D3D0
  BackgroundColor #003153
}
skinparam IconPublic {
  Color #D9D3D0
  BackgroundColor #003153
}
skinparam Note {
  FontColor #D9D3D0
  FontName Verdana
}
skinparam Object {
  BorderColor #D9D3D0
}
skinparam Package {
  BorderColor #D9D3D0
  FontColor #D9D3D0
  FontName Verdana
}
skinparam State {
  BackgroundColor #003153
  BorderColor #D9D3D0
}
skinparam StereotypeA {
  BackgroundColor #003153
  BorderColor #D9D3D0
}
skinparam StereotypeC {
  BackgroundColor #003153
  BorderColor #D9D3D0
}
skinparam StereotypeE {
  BackgroundColor #003153
  BorderColor #D9D3D0
}
skinparam StereotypeI {
  BackgroundColor #003153
  BorderColor #D9D3D0
}
skinparam StereotypeN {
  BackgroundColor #003153
  BorderColor #D9D3D0
}
skinparam UseCaseStereoType {
  FontColor #D9D3D0
  FontName Verdana
}

hide <<Path>> circle
hide <<Response>> circle
hide <<Parameter>> circle
hide empty methods
hide empty fields
set namespaceSeparator none

title Swagger Petstore v1.0.0
footer OpenApi Type diagram - futurum.openapi-to-plantuml
class "GET /pets" <<Path>> {
{field} limit : integer {O}
}
class "GET /pets 200" <<Response>> { }
class "GET /pets default" <<Response>> { }
class "POST /pets" <<Path>> {
}
class "POST /pets 201" <<Response>> { }
class "POST /pets default" <<Response>> { }
class "GET /pets/{petId}" <<Path>> {
{field} petId : string
}
class "GET /pets/{petId} 200" <<Response>> { }
class "GET /pets/{petId} default" <<Response>> { }
class Pet {
{field} id : integer
{field} name : string
{field} tag : string
}
class Pets {
{field} value : array
}
class Error {
{field} code : integer
{field} message : string
}
"GET /pets" ..> "1" "GET /pets 200" : 200
"GET /pets 200" ..> "1" "Pets" : 200
"GET /pets" ..> "1" "GET /pets default" : default
"GET /pets default" ..> "1" "Error" : default
"POST /pets" ..> "1" "POST /pets 201" : 201
"POST /pets" ..> "1" "POST /pets default" : default
"POST /pets default" ..> "1" "Error" : default
"GET /pets/{petId}" ..> "1" "GET /pets/{petId} 200" : 200
"GET /pets/{petId} 200" ..> "1" "Pet" : 200
"GET /pets/{petId}" ..> "1" "GET /pets/{petId} default" : default
"GET /pets/{petId} default" ..> "1" "Error" : default
"Pets" ..> "*" "Pet"


@enduml

PlantUML version 1.2022.6(Tue Jun 21 18:34:49 BST 2022)
(GPL source distribution)
Java Runtime: OpenJDK Runtime Environment
JVM: Dynamic Code Evolution 64-Bit Server VM
Default Encoding: UTF-8
Language: en
Country: GB
--></g></svg>