<?xml version="1.0" encoding="UTF-8" standalone="no"?><svg xmlns="http://www.w3.org/2000/svg" xmlns:xlink="http://www.w3.org/1999/xlink" contentStyleType="text/css" height="577px" preserveAspectRatio="none" style="width:881px;height:577px;background:#FFFFFF;" version="1.1" viewBox="0 0 881 577" width="881px" zoomAndPan="magnify"><defs/><g><rect height="26.4883" style="stroke:#00000000;stroke-width:1.0;fill:none;" width="181" x="343.25" y="5"/><text fill="#000000" font-family="sans-serif" font-size="14" font-weight="bold" lengthAdjust="spacing" textLength="171" x="348.25" y="23.5352">Swagger Petstore v1.0.0</text><!--MD5=[0a6c2cead64411c82fe9b0cf2004c6b0]
class GET /pets--><g id="elem_GET /pets"><rect codeLine="12" fill="#F1F1F1" height="65.1094" id="GET /pets" rx="2.5" ry="2.5" style="stroke:#181818;stroke-width:0.5;" width="128" x="60" y="44.4883"/><text fill="#000000" font-family="sans-serif" font-size="12" font-style="italic" lengthAdjust="spacing" textLength="37" x="105.5" y="61.0898">«Path»</text><text fill="#000000" font-family="sans-serif" font-size="14" lengthAdjust="spacing" textLength="67" x="90.5" y="77.1563">GET /pets</text><line style="stroke:#181818;stroke-width:0.5;" x1="61" x2="187" y1="85.1094" y2="85.1094"/><text fill="#000000" font-family="sans-serif" font-size="14" lengthAdjust="spacing" textLength="116" x="66" y="102.6445">limit : integer {O}</text></g><!--MD5=[e95f7770420b2d049f87f014e05109fe]
class GET /pets 200--><g id="elem_GET /pets 200"><rect codeLine="16" fill="#F1F1F1" height="40.6211" id="GET /pets 200" rx="2.5" ry="2.5" style="stroke:#181818;stroke-width:0.5;" width="104" x="7" y="186.4883"/><text fill="#000000" font-family="sans-serif" font-size="12" font-style="italic" lengthAdjust="spacing" textLength="68" x="25" y="203.0898">«Response»</text><text fill="#000000" font-family="sans-serif" font-size="14" lengthAdjust="spacing" textLength="98" x="10" y="219.1563">GET /pets 200</text></g><!--MD5=[49ebb3ae3de95b6db15502352921f116]
class GET /pets default--><g id="elem_GET /pets default"><rect codeLine="17" fill="#F1F1F1" height="40.6211" id="GET /pets default" rx="2.5" ry="2.5" style="stroke:#181818;stroke-width:0.5;" width="125" x="146.5" y="186.4883"/><text fill="#000000" font-family="sans-serif" font-size="12" font-style="italic" lengthAdjust="spacing" textLength="68" x="175" y="203.0898">«Response»</text><text fill="#000000" font-family="sans-serif" font-size="14" lengthAdjust="spacing" textLength="119" x="149.5" y="219.1563">GET /pets default</text></g><!--MD5=[087bd60aed28e463dbeda33bbd5b991c]
class POST /pets--><g id="elem_POST /pets"><rect codeLine="18" fill="#F1F1F1" height="40.6211" id="POST /pets" rx="2.5" ry="2.5" style="stroke:#181818;stroke-width:0.5;" width="82" x="430" y="56.4883"/><text fill="#000000" font-family="sans-serif" font-size="12" font-style="italic" lengthAdjust="spacing" textLength="37" x="452.5" y="73.0898">«Path»</text><text fill="#000000" font-family="sans-serif" font-size="14" lengthAdjust="spacing" textLength="76" x="433" y="89.1563">POST /pets</text></g><!--MD5=[15636dcb8f290b92990870cb0a2a3004]
class POST /pets 201--><g id="elem_POST /pets 201"><rect codeLine="21" fill="#F1F1F1" height="40.6211" id="POST /pets 201" rx="2.5" ry="2.5" style="stroke:#181818;stroke-width:0.5;" width="113" x="476.5" y="186.4883"/><text fill="#000000" font-family="sans-serif" font-size="12" font-style="italic" lengthAdjust="spacing" textLength="68" x="499" y="203.0898">«Response»</text><text fill="#000000" font-family="sans-serif" font-size="14" lengthAdjust="spacing" textLength="107" x="479.5" y="219.1563">POST /pets 201</text></g><!--MD5=[7788d3c21e70113f36d229637001a6b2]
class POST /pets default--><g id="elem_POST /pets default"><rect codeLine="22" fill="#F1F1F1" height="40.6211" id="POST /pets default" rx="2.5" ry="2.5" style="stroke:#181818;stroke-width:0.5;" width="134" x="307" y="186.4883"/><text fill="#000000" font-family="sans-serif" font-size="12" font-style="italic" lengthAdjust="spacing" textLength="68" x="340" y="203.0898">«Response»</text><text fill="#000000" font-family="sans-serif" font-size="14" lengthAdjust="spacing" textLength="128" x="310" y="219.1563">POST /pets default</text></g><!--MD5=[5e95c49161e344a97842298361576963]
class GET /pets/{petId}--><g id="elem_GET /pets/{petId}"><rect codeLine="23" fill="#F1F1F1" height="65.1094" id="GET /pets/{petId}" rx="2.5" ry="2.5" style="stroke:#181818;stroke-width:0.5;" width="125" x="749.5" y="44.4883"/><text fill="#000000" font-family="sans-serif" font-size="12" font-style="italic" lengthAdjust="spacing" textLength="37" x="793.5" y="61.0898">«Path»</text><text fill="#000000" font-family="sans-serif" font-size="14" lengthAdjust="spacing" textLength="119" x="752.5" y="77.1563">GET /pets/{petId}</text><line style="stroke:#181818;stroke-width:0.5;" x1="750.5" x2="873.5" y1="85.1094" y2="85.1094"/><text fill="#000000" font-family="sans-serif" font-size="14" lengthAdjust="spacing" textLength="87" x="755.5" y="102.6445">petId : string</text></g><!--MD5=[fda567a0a6bdb9fff3dadedb9b716a57]
class GET /pets/{petId} 200--><g id="elem_GET /pets/{petId} 200"><rect codeLine="27" fill="#F1F1F1" height="40.6211" id="GET /pets/{petId} 200" rx="2.5" ry="2.5" style="stroke:#181818;stroke-width:0.5;" width="156" x="682" y="257.4883"/><text fill="#000000" font-family="sans-serif" font-size="12" font-style="italic" lengthAdjust="spacing" textLength="68" x="726" y="274.0898">«Response»</text><text fill="#000000" font-family="sans-serif" font-size="14" lengthAdjust="spacing" textLength="150" x="685" y="290.1563">GET /pets/{petId} 200</text></g><!--MD5=[9b1efe8429b9ada8e427c694ff98c066]
class GET /pets/{petId} default--><g id="elem_GET /pets/{petId} default"><rect codeLine="28" fill="#F1F1F1" height="40.6211" id="GET /pets/{petId} default" rx="2.5" ry="2.5" style="stroke:#181818;stroke-width:0.5;" width="177" x="624.5" y="186.4883"/><text fill="#000000" font-family="sans-serif" font-size="12" font-style="italic" lengthAdjust="spacing" textLength="68" x="679" y="203.0898">«Response»</text><text fill="#000000" font-family="sans-serif" font-size="14" lengthAdjust="spacing" textLength="171" x="627.5" y="219.1563">GET /pets/{petId} default</text></g><!--MD5=[9cfa872a99fa8e70a8c023fe905238fd]
class Pet--><g id="elem_Pet"><rect codeLine="29" fill="#F1F1F1" height="89.4648" id="Pet" rx="2.5" ry="2.5" style="stroke:#181818;stroke-width:0.5;" width="102" x="346" y="462.4883"/><ellipse cx="383.05" cy="478.4883" fill="#ADD1B2" rx="11" ry="11" style="stroke:#181818;stroke-width:1.0;"/><path d="M386.0231,484.1313 Q385.4421,484.4302 384.8029,484.5796 Q384.1638,484.729 383.4582,484.729 Q380.9514,484.729 379.6315,483.0771 Q378.3117,481.4253 378.3117,478.3042 Q378.3117,475.1748 379.6315,473.5229 Q380.9514,471.8711 383.4582,471.8711 Q384.1638,471.8711 384.8112,472.0205 Q385.4587,472.1699 386.0231,472.4688 L386.0231,475.1914 Q385.3923,474.6104 384.7988,474.3406 Q384.2053,474.0708 383.5744,474.0708 Q382.2297,474.0708 381.5449,475.1375 Q380.8601,476.2041 380.8601,478.3042 Q380.8601,480.396 381.5449,481.4626 Q382.2297,482.5293 383.5744,482.5293 Q384.2053,482.5293 384.7988,482.2595 Q385.3923,481.9897 386.0231,481.4087 Z " fill="#000000"/><text fill="#000000" font-family="sans-serif" font-size="14" lengthAdjust="spacing" textLength="21" x="401.95" y="483.7793">Pet</text><line style="stroke:#181818;stroke-width:0.5;" x1="347" x2="447" y1="494.4883" y2="494.4883"/><text fill="#000000" font-family="sans-serif" font-size="14" lengthAdjust="spacing" textLength="74" x="352" y="512.0234">id : integer</text><text fill="#000000" font-family="sans-serif" font-size="14" lengthAdjust="spacing" textLength="90" x="352" y="528.5117">name : string</text><text fill="#000000" font-family="sans-serif" font-size="14" lengthAdjust="spacing" textLength="74" x="352" y="545">tag : string</text></g><!--MD5=[5f57145429fa262ab416588fa7a1582f]
class Pets--><g id="elem_Pets"><rect codeLine="35" fill="#F1F1F1" height="56.4883" id="Pets" rx="2.5" ry="2.5" style="stroke:#181818;stroke-width:0.5;" width="95" x="123.5" y="336.9883"/><ellipse cx="154.25" cy="352.9883" fill="#ADD1B2" rx="11" ry="11" style="stroke:#181818;stroke-width:1.0;"/><path d="M157.2231,358.6313 Q156.6421,358.9302 156.0029,359.0796 Q155.3638,359.229 154.6582,359.229 Q152.1514,359.229 150.8315,357.5771 Q149.5117,355.9253 149.5117,352.8042 Q149.5117,349.6748 150.8315,348.0229 Q152.1514,346.3711 154.6582,346.3711 Q155.3638,346.3711 156.0112,346.5205 Q156.6587,346.6699 157.2231,346.9688 L157.2231,349.6914 Q156.5923,349.1104 155.9988,348.8406 Q155.4053,348.5708 154.7744,348.5708 Q153.4297,348.5708 152.7449,349.6375 Q152.0601,350.7041 152.0601,352.8042 Q152.0601,354.896 152.7449,355.9626 Q153.4297,357.0293 154.7744,357.0293 Q155.4053,357.0293 155.9988,356.7595 Q156.5923,356.4897 157.2231,355.9087 Z " fill="#000000"/><text fill="#000000" font-family="sans-serif" font-size="14" lengthAdjust="spacing" textLength="28" x="171.75" y="358.2793">Pets</text><line style="stroke:#181818;stroke-width:0.5;" x1="124.5" x2="217.5" y1="368.9883" y2="368.9883"/><text fill="#000000" font-family="sans-serif" font-size="14" lengthAdjust="spacing" textLength="83" x="129.5" y="386.5234">value : array</text></g><!--MD5=[b8cfd8c4119a3b0a7a46bfc5fc780f85]
class Error--><g id="elem_Error"><rect codeLine="39" fill="#F1F1F1" height="72.9766" id="Error" rx="2.5" ry="2.5" style="stroke:#181818;stroke-width:0.5;" width="124" x="312" y="328.4883"/><ellipse cx="352.65" cy="344.4883" fill="#ADD1B2" rx="11" ry="11" style="stroke:#181818;stroke-width:1.0;"/><path d="M355.6231,350.1313 Q355.0421,350.4302 354.4029,350.5796 Q353.7638,350.729 353.0582,350.729 Q350.5514,350.729 349.2315,349.0771 Q347.9117,347.4253 347.9117,344.3042 Q347.9117,341.1748 349.2315,339.5229 Q350.5514,337.8711 353.0582,337.8711 Q353.7638,337.8711 354.4112,338.0205 Q355.0587,338.1699 355.6231,338.4688 L355.6231,341.1914 Q354.9923,340.6104 354.3988,340.3406 Q353.8053,340.0708 353.1744,340.0708 Q351.8297,340.0708 351.1449,341.1375 Q350.4601,342.2041 350.4601,344.3042 Q350.4601,346.396 351.1449,347.4626 Q351.8297,348.5293 353.1744,348.5293 Q353.8053,348.5293 354.3988,348.2595 Q354.9923,347.9897 355.6231,347.4087 Z " fill="#000000"/><text fill="#000000" font-family="sans-serif" font-size="14" lengthAdjust="spacing" textLength="35" x="372.35" y="349.7793">Error</text><line style="stroke:#181818;stroke-width:0.5;" x1="313" x2="435" y1="360.4883" y2="360.4883"/><text fill="#000000" font-family="sans-serif" font-size="14" lengthAdjust="spacing" textLength="94" x="318" y="378.0234">code : integer</text><text fill="#000000" font-family="sans-serif" font-size="14" lengthAdjust="spacing" textLength="112" x="318" y="394.5117">message : string</text></g><!--MD5=[1147b680dd808fa41715f8830e4e0eed]
link GET /pets to GET /pets 200--><g id="link_GET /pets_GET /pets 200"><path codeLine="44" d="M107.93,109.6283 C96.61,131.9283 81.67,161.3383 71.29,181.7783 " fill="none" id="GET /pets-to-GET /pets 200" style="stroke:#181818;stroke-width:1.0;stroke-dasharray:7.0,7.0;"/><polygon fill="#181818" points="69.02,186.2583,76.6546,180.0363,71.2789,181.7976,69.5175,176.422,69.02,186.2583" style="stroke:#181818;stroke-width:1.0;"/><text fill="#000000" font-family="sans-serif" font-size="13" lengthAdjust="spacing" textLength="24" x="93" y="153.0566">200</text><text fill="#000000" font-family="sans-serif" font-size="13" lengthAdjust="spacing" textLength="8" x="62.7884" y="175.6353">1</text></g><!--MD5=[a487395fc613c3ea7b5d31b3d554efea]
link GET /pets 200 to Pets--><g id="link_GET /pets 200_Pets"><path codeLine="45" d="M73.18,227.7483 C92.17,254.1883 126.05,301.3783 148.53,332.6883 " fill="none" id="GET /pets 200-to-Pets" style="stroke:#181818;stroke-width:1.0;stroke-dasharray:7.0,7.0;"/><polygon fill="#181818" points="151.48,336.7983,149.4942,327.1517,148.5698,332.7325,142.989,331.8081,151.48,336.7983" style="stroke:#181818;stroke-width:1.0;"/><text fill="#000000" font-family="sans-serif" font-size="13" lengthAdjust="spacing" textLength="8" x="138.041" y="326.0928">1</text></g><!--MD5=[5349a2deef7947f12a2fef6aa175c93e]
link GET /pets to GET /pets default--><g id="link_GET /pets_GET /pets default"><path codeLine="46" d="M145.01,109.6283 C159.88,132.0183 179.52,161.5883 193.09,182.0383 " fill="none" id="GET /pets-to-GET /pets default" style="stroke:#181818;stroke-width:1.0;stroke-dasharray:7.0,7.0;"/><polygon fill="#181818" points="195.9,186.2583,194.2513,176.5484,193.1331,182.0936,187.5878,180.9755,195.9,186.2583" style="stroke:#181818;stroke-width:1.0;"/><text fill="#000000" font-family="sans-serif" font-size="13" lengthAdjust="spacing" textLength="44" x="176" y="153.0566">default</text><text fill="#000000" font-family="sans-serif" font-size="13" lengthAdjust="spacing" textLength="8" x="182.8769" y="175.6353">1</text></g><!--MD5=[59004c35fcda79b73e2b3245e2540f86]
link GET /pets default to Error--><g id="link_GET /pets default_Error"><path codeLine="47" d="M229.9,227.7483 C255.56,252.0083 299.71,293.7483 332.39,324.6483 " fill="none" id="GET /pets default-to-Error" style="stroke:#181818;stroke-width:1.0;stroke-dasharray:7.0,7.0;"/><polygon fill="#181818" points="336.32,328.3683,332.5444,319.2719,332.6929,324.9268,327.038,325.0753,336.32,328.3683" style="stroke:#181818;stroke-width:1.0;"/><text fill="#000000" font-family="sans-serif" font-size="13" lengthAdjust="spacing" textLength="8" x="320.6353" y="317.8328">1</text></g><!--MD5=[5b6883294d9a42d2d74c804680c03cfe]
link POST /pets to POST /pets 201--><g id="link_POST /pets_POST /pets 201"><path codeLine="48" d="M480.55,97.7083 C491.51,120.3283 509.47,157.4083 521.27,181.7683 " fill="none" id="POST /pets-to-POST /pets 201" style="stroke:#181818;stroke-width:1.0;stroke-dasharray:7.0,7.0;"/><polygon fill="#181818" points="523.54,186.4583,523.2312,176.6143,521.3671,181.9551,516.0262,180.091,523.54,186.4583" style="stroke:#181818;stroke-width:1.0;"/><text fill="#000000" font-family="sans-serif" font-size="13" lengthAdjust="spacing" textLength="24" x="508" y="153.0566">201</text><text fill="#000000" font-family="sans-serif" font-size="13" lengthAdjust="spacing" textLength="8" x="511.5861" y="175.8941">1</text></g><!--MD5=[f7c103747eb77d80dcf475c7305d8181]
link POST /pets to POST /pets default--><g id="link_POST /pets_POST /pets default"><path codeLine="49" d="M456.06,97.7083 C438.77,120.5083 410.34,158.0283 391.9,182.3683 " fill="none" id="POST /pets-to-POST /pets default" style="stroke:#181818;stroke-width:1.0;stroke-dasharray:7.0,7.0;"/><polygon fill="#181818" points="388.8,186.4583,397.4191,181.6927,391.816,182.4703,391.0384,176.8672,388.8,186.4583" style="stroke:#181818;stroke-width:1.0;"/><text fill="#000000" font-family="sans-serif" font-size="13" lengthAdjust="spacing" textLength="44" x="424" y="153.0566">default</text><text fill="#000000" font-family="sans-serif" font-size="13" lengthAdjust="spacing" textLength="8" x="383.9725" y="175.8941">1</text></g><!--MD5=[a24e5556ac12b8474120f343df67b3f8]
link POST /pets default to Error--><g id="link_POST /pets default_Error"><path codeLine="50" d="M374,227.7483 C374,251.6183 374,292.3983 374,323.1383 " fill="none" id="POST /pets default-to-Error" style="stroke:#181818;stroke-width:1.0;stroke-dasharray:7.0,7.0;"/><polygon fill="#181818" points="374,328.3683,378,319.3683,374,323.3683,370,319.3683,374,328.3683" style="stroke:#181818;stroke-width:1.0;"/><text fill="#000000" font-family="sans-serif" font-size="13" lengthAdjust="spacing" textLength="8" x="365.2625" y="317.8328">1</text></g><!--MD5=[45a00f969de693282e0c7f3f361df8db]
link GET /pets/{petId} to GET /pets/{petId} 200--><g id="link_GET /pets/{petId}_GET /pets/{petId} 200"><path codeLine="51" d="M821.7,109.6883 C829.49,141.1383 836.52,189.9283 819,227.4883 C814.24,237.6983 806.23,246.5383 797.62,253.8183 " fill="none" id="GET /pets/{petId}-to-GET /pets/{petId} 200" style="stroke:#181818;stroke-width:1.0;stroke-dasharray:7.0,7.0;"/><polygon fill="#181818" points="793.35,257.2683,802.8676,254.7356,797.2432,254.1309,797.8478,248.5065,793.35,257.2683" style="stroke:#181818;stroke-width:1.0;"/><text fill="#000000" font-family="sans-serif" font-size="13" lengthAdjust="spacing" textLength="24" x="830" y="153.0566">200</text><text fill="#000000" font-family="sans-serif" font-size="13" lengthAdjust="spacing" textLength="8" x="796.4942" y="247.6855">1</text></g><!--MD5=[c797db324bab3ebb4cdbe0e43b2611e0]
link GET /pets/{petId} 200 to Pet--><g id="link_GET /pets/{petId} 200_Pet"><path codeLine="52" d="M728.74,298.5383 C667.28,336.9683 529.99,422.8283 452.67,471.1683 " fill="none" id="GET /pets/{petId} 200-to-Pet" style="stroke:#181818;stroke-width:1.0;stroke-dasharray:7.0,7.0;"/><polygon fill="#181818" points="448.13,474.0183,457.8841,472.6551,452.374,471.3747,453.6543,465.8647,448.13,474.0183" style="stroke:#181818;stroke-width:1.0;"/><text fill="#000000" font-family="sans-serif" font-size="13" lengthAdjust="spacing" textLength="8" x="455.8827" y="465.8847">1</text></g><!--MD5=[94f5b401899b14b8951476bb8e0c8ab0]
link GET /pets/{petId} to GET /pets/{petId} default--><g id="link_GET /pets/{petId}_GET /pets/{petId} default"><path codeLine="53" d="M787.53,109.6283 C770.14,132.1183 747.15,161.8383 731.33,182.2883 " fill="none" id="GET /pets/{petId}-to-GET /pets/{petId} default" style="stroke:#181818;stroke-width:1.0;stroke-dasharray:7.0,7.0;"/><polygon fill="#181818" points="728.26,186.2583,736.9277,181.5816,731.3168,182.3015,730.5969,176.6907,728.26,186.2583" style="stroke:#181818;stroke-width:1.0;"/><text fill="#000000" font-family="sans-serif" font-size="13" lengthAdjust="spacing" textLength="44" x="763" y="153.0566">default</text><text fill="#000000" font-family="sans-serif" font-size="13" lengthAdjust="spacing" textLength="8" x="723.5676" y="175.6353">1</text></g><!--MD5=[8c0472b428794e447c0a1b4e61eb3f3a]
link GET /pets/{petId} default to Error--><g id="link_GET /pets/{petId} default_Error"><path codeLine="54" d="M670.41,227.5883 C612.75,254.1183 509.26,301.7483 441.1,333.1083 " fill="none" id="GET /pets/{petId} default-to-Error" style="stroke:#181818;stroke-width:1.0;stroke-dasharray:7.0,7.0;"/><polygon fill="#181818" points="436.25,335.3383,446.0981,335.2183,440.794,333.2521,442.7602,327.9479,436.25,335.3383" style="stroke:#181818;stroke-width:1.0;"/><text fill="#000000" font-family="sans-serif" font-size="13" lengthAdjust="spacing" textLength="8" x="443.9102" y="328.6305">1</text></g><!--MD5=[70bf3cdf2f4308d2f9864626ac4c3e8c]
link Pets to Pet--><g id="link_Pets_Pet"><path codeLine="55" d="M214.84,393.1483 C250.86,415.4583 302.11,447.2083 341.08,471.3483 " fill="none" id="Pets-to-Pet" style="stroke:#181818;stroke-width:1.0;stroke-dasharray:7.0,7.0;"/><polygon fill="#181818" points="345.77,474.2483,340.2136,466.1164,341.5156,471.6214,336.0107,472.9234,345.77,474.2483" style="stroke:#181818;stroke-width:1.0;"/><text fill="#000000" font-family="sans-serif" font-size="13" lengthAdjust="spacing" textLength="6" x="332.1439" y="466.147">*</text></g><rect height="11.7773" style="stroke:#00000000;stroke-width:1.0;fill:none;" width="269" x="299.25" y="557.9531"/><text fill="#888888" font-family="sans-serif" font-size="10" lengthAdjust="spacing" textLength="269" x="299.25" y="567.6211">OpenApi Type diagram - futurum.openapi-to-plantuml</text><!--MD5=[81c4f7551083e3bb3193d9fb63671639]
@startuml OpenApi Type diagram
'!theme blueprint

hide <<Path>> circle
hide <<Response>> circle
hide <<Parameter>> circle
hide empty methods
hide empty fields
set namespaceSeparator none

title Swagger Petstore v1.0.0
footer OpenApi Type diagram - futurum.openapi-to-plantuml
class "GET /pets" <<Path>> {
{field} limit : integer {O}
}

class "GET /pets 200" <<Response>> { }
class "GET /pets default" <<Response>> { }
class "POST /pets" <<Path>> {
}

class "POST /pets 201" <<Response>> { }
class "POST /pets default" <<Response>> { }
class "GET /pets/{petId}" <<Path>> {
{field} petId : string
}

class "GET /pets/{petId} 200" <<Response>> { }
class "GET /pets/{petId} default" <<Response>> { }
class "Pet" {
{field} id : integer
{field} name : string
{field} tag : string
}

class "Pets" {
{field} value : array
}

class "Error" {
{field} code : integer
{field} message : string
}

"GET /pets" ..> "1" "GET /pets 200" : "200"
"GET /pets 200" ..> "1" "Pets"
"GET /pets" ..> "1" "GET /pets default" : "default"
"GET /pets default" ..> "1" "Error"
"POST /pets" ..> "1" "POST /pets 201" : "201"
"POST /pets" ..> "1" "POST /pets default" : "default"
"POST /pets default" ..> "1" "Error"
"GET /pets/{petId}" ..> "1" "GET /pets/{petId} 200" : "200"
"GET /pets/{petId} 200" ..> "1" "Pet"
"GET /pets/{petId}" ..> "1" "GET /pets/{petId} default" : "default"
"GET /pets/{petId} default" ..> "1" "Error"
"Pets" ..> "*" "Pet"


@enduml

@startuml OpenApi Type diagram

hide <<Path>> circle
hide <<Response>> circle
hide <<Parameter>> circle
hide empty methods
hide empty fields
set namespaceSeparator none

title Swagger Petstore v1.0.0
footer OpenApi Type diagram - futurum.openapi-to-plantuml
class "GET /pets" <<Path>> {
{field} limit : integer {O}
}

class "GET /pets 200" <<Response>> { }
class "GET /pets default" <<Response>> { }
class "POST /pets" <<Path>> {
}

class "POST /pets 201" <<Response>> { }
class "POST /pets default" <<Response>> { }
class "GET /pets/{petId}" <<Path>> {
{field} petId : string
}

class "GET /pets/{petId} 200" <<Response>> { }
class "GET /pets/{petId} default" <<Response>> { }
class "Pet" {
{field} id : integer
{field} name : string
{field} tag : string
}

class "Pets" {
{field} value : array
}

class "Error" {
{field} code : integer
{field} message : string
}

"GET /pets" ..> "1" "GET /pets 200" : "200"
"GET /pets 200" ..> "1" "Pets"
"GET /pets" ..> "1" "GET /pets default" : "default"
"GET /pets default" ..> "1" "Error"
"POST /pets" ..> "1" "POST /pets 201" : "201"
"POST /pets" ..> "1" "POST /pets default" : "default"
"POST /pets default" ..> "1" "Error"
"GET /pets/{petId}" ..> "1" "GET /pets/{petId} 200" : "200"
"GET /pets/{petId} 200" ..> "1" "Pet"
"GET /pets/{petId}" ..> "1" "GET /pets/{petId} default" : "default"
"GET /pets/{petId} default" ..> "1" "Error"
"Pets" ..> "*" "Pet"


@enduml

PlantUML version 1.2022.6(Tue Jun 21 18:34:49 BST 2022)
(GPL source distribution)
Java Runtime: OpenJDK Runtime Environment
JVM: Dynamic Code Evolution 64-Bit Server VM
Default Encoding: UTF-8
Language: en
Country: GB
--></g></svg>